<svg width="133" height="33" viewBox="0 0 133 33" fill="none" xmlns="http://www.w3.org/2000/svg">
<path d="M71.6797 9.59879C73.1401 9.59879 73.7844 8.26722 73.7844 6.97862C73.7844 5.70432 73.1401 4.37276 71.6797 4.37276C70.2193 4.37276 69.575 5.70432 69.575 6.97862C69.575 8.26722 70.2193 9.59879 71.6797 9.59879ZM71.6797 10.8874C69.3029 10.8874 67.9427 9.25516 67.9427 6.97862C67.9427 4.71639 69.3029 3.08415 71.6797 3.08415C74.0565 3.08415 75.4167 4.71639 75.4167 6.97862C75.4167 9.25516 74.0565 10.8874 71.6797 10.8874Z" fill="#1570EF"/>
<path d="M63.5044 10.6869V3.2846H65.0364V4.71639H65.0651C65.2512 3.92891 66.2248 3.08415 67.2271 3.08415C67.5993 3.08415 67.6996 3.11279 67.8428 3.12711V4.70207C67.6137 4.67344 67.3703 4.63048 67.1412 4.63048C66.0244 4.63048 65.1367 5.53251 65.1367 7.16475V10.6869H63.5044Z" fill="#1570EF"/>
<path d="M62.1777 5.7616H60.5454C60.4166 4.85957 59.758 4.37276 58.8559 4.37276C58.0112 4.37276 56.8228 4.81662 56.8228 7.06452C56.8228 8.29586 57.3669 9.59879 58.7843 9.59879C59.7293 9.59879 60.3879 8.9688 60.5454 7.90928H62.1777C61.877 9.82787 60.6886 10.8874 58.7843 10.8874C56.4648 10.8874 55.1906 9.24084 55.1906 7.06452C55.1906 4.83093 56.4076 3.08415 58.8416 3.08415C60.5598 3.08415 62.0202 3.94323 62.1777 5.7616Z" fill="#1570EF"/>
<path d="M52.1378 10.6869V3.2846H53.7701V10.6869H52.1378ZM52.1378 2.01031V0.463982H53.7701V2.01031H52.1378Z" fill="#1570EF"/>
<path d="M39.6366 10.6869V3.2846H41.183V4.31549H41.2259C41.7127 3.58528 42.3284 3.08415 43.5025 3.08415C44.4045 3.08415 45.2493 3.47074 45.5786 4.31549C46.1226 3.55664 46.8242 3.08415 47.8981 3.08415C49.4587 3.08415 50.3751 3.77141 50.3751 5.57546V10.6869H48.7428V6.36295C48.7428 5.18888 48.6712 4.37276 47.3969 4.37276C46.2945 4.37276 45.822 5.10297 45.822 6.34863V10.6869H44.1897V5.93341C44.1897 4.91684 43.8747 4.37276 42.8868 4.37276C42.042 4.37276 41.2689 5.06002 41.2689 6.29136V10.6869H39.6366Z" fill="#1570EF"/>
<path d="M116.277 32.1638L121.46 24.3462L116.792 17.3018H123.035L124.667 20.2513L126.328 17.3018H132.399L127.731 24.3462L133 32.1638H126.757L124.581 28.527L122.491 32.1638H116.277Z" fill="#1570EF"/>
<path d="M109.306 32.1638V17.3018H114.976V32.1638H109.306ZM114.976 11.7178V15.6982H109.306V11.7178H114.976Z" fill="#1570EF"/>
<path d="M96.4675 32.1638V17.3018H101.908V19.6786H101.966C102.882 17.9032 104.085 16.9295 106.146 16.9295C106.719 16.9295 107.263 17.0154 107.807 17.1586V22.1699C107.235 21.9694 106.719 21.7976 105.574 21.7976C103.34 21.7976 102.137 23.1149 102.137 26.2934V32.1638H96.4675Z" fill="#1570EF"/>
<path d="M91.6216 12.7774V17.3018H94.657V20.7954H91.6216V25.9784C91.6216 27.3529 91.9366 27.9543 93.3683 27.9543C93.7979 27.9543 94.2274 27.9257 94.657 27.8684V32.1638C93.5115 32.1638 92.2229 32.3356 91.0202 32.3356C88.6148 32.3356 85.9517 31.9633 85.9517 27.897V20.7954H83.4317V17.3018H85.9517V12.7774H91.6216Z" fill="#1570EF"/>
<path d="M76.3493 26.8661V25.4916C75.6621 25.8353 74.8889 26.0357 74.1157 26.2075C72.8558 26.4939 72.1971 26.8089 72.1971 27.8111C72.1971 28.4984 72.9417 29.1856 73.9725 29.1856C75.2612 29.1856 76.2634 28.4125 76.3493 26.8661ZM81.7901 22.7426V28.842C81.7901 29.9588 81.8474 31.2188 82.4774 32.1638H76.6929C76.5498 31.7629 76.4639 31.1615 76.4925 30.7606H76.4352C75.2325 32.1351 73.4857 32.536 71.6531 32.536C68.7895 32.536 66.4127 31.1615 66.4127 28.0402C66.4127 23.3439 71.9108 23.5158 74.803 22.9717C75.5761 22.8285 76.3493 22.5994 76.3493 21.6544C76.3493 20.6522 75.4043 20.2799 74.488 20.2799C72.7412 20.2799 72.3976 21.1676 72.3689 21.7976H67.1C67.1859 19.7072 68.2168 18.4759 69.6772 17.7886C71.109 17.1014 72.9989 16.9295 74.7457 16.9295C81.8474 16.9295 81.7901 19.879 81.7901 22.7426Z" fill="#1570EF"/>
<path d="M39.6987 32.1638V17.3018H45.1681V19.2777H45.2254C46.3708 17.5595 48.0317 16.9295 50.0935 16.9295C51.6971 16.9295 53.4152 17.76 54.1025 19.249C54.3316 19.0772 55.477 16.9295 59.171 16.9295C62.9796 16.9295 64.2682 19.564 64.2682 21.9694V32.1638H58.5983V24.1171C58.5983 22.714 58.4551 21.454 56.737 21.454C55.3052 21.454 54.8184 22.5708 54.8184 24.1171V32.1638H49.1485V24.1171C49.1485 22.714 49.0053 21.454 47.2872 21.454C45.8554 21.454 45.3686 22.5708 45.3686 24.1171V32.1638H39.6987Z" fill="#1570EF"/>
<path d="M2.98289 29.1809H28.0392V4.12459H2.98289V29.1809ZM31.0221 30.9706L31.0156 31.0924C30.9587 31.6541 30.5124 32.1004 29.9507 32.1573L29.8289 32.1638H1.19316C0.57531 32.1638 0.0674162 31.6941 0.00640855 31.0924L0 30.9706V2.33485C4.61226e-07 1.67589 0.534195 1.14169 1.19316 1.14169H29.8289L29.9507 1.1481C30.5524 1.20911 31.0221 1.717 31.0221 2.33485V30.9706Z" fill="#1570EF"/>
<path d="M16.7042 1.14169V32.1638H14.3179V1.14169H16.7042Z" fill="#1570EF"/>
<path d="M31.025 17.8429L0.00291287 17.8429L0.00291298 15.4566L31.025 15.4566V17.8429Z" fill="#1570EF"/>
<path d="M2.98289 4.12459H14.3179V15.4596H2.98289V4.12459Z" fill="#1570EF"/>
<path d="M16.7042 17.8459H28.0392V29.1809H16.7042V17.8459Z" fill="#1570EF"/>
</svg>
