<svg width="133" height="33" viewBox="0 0 133 33" fill="none" xmlns="http://www.w3.org/2000/svg">
<path d="M74.7461 16.4658C81.8471 16.4659 81.79 19.4149 81.79 22.2783V28.3779C81.79 29.4947 81.8475 30.7552 82.4775 31.7002H76.6934C76.5502 31.2994 76.4636 30.6978 76.4922 30.2969H76.4355C75.2329 31.6713 73.4859 32.0722 71.6533 32.0723C68.7897 32.0723 66.4131 30.6975 66.4131 27.5762C66.4131 22.8801 71.9105 23.0518 74.8027 22.5078C75.5759 22.3646 76.3496 22.1354 76.3496 21.1904C76.3496 20.1883 75.4045 19.8165 74.4883 19.8164C72.7415 19.8164 72.3978 20.704 72.3691 21.334H67.0996C67.1855 19.2437 68.2164 18.0115 69.6768 17.3242C71.1085 16.637 72.9993 16.4658 74.7461 16.4658ZM91.6211 16.8379H94.6572V20.3311H91.6211V25.5146C91.6211 26.889 91.9366 27.4902 93.3682 27.4902C93.7977 27.4902 94.2277 27.4616 94.6572 27.4043V31.7002C93.5119 31.7002 92.2231 31.872 91.0205 31.8721C88.6151 31.8721 85.9521 31.4989 85.9521 27.4326V20.3311H83.4316V16.8379H85.9521V12.3135H91.6211V16.8379ZM29.9502 0.68457C30.5519 0.745578 31.0225 1.25325 31.0225 1.87109V14.9922H31.0254V17.3789H31.0225V30.5068L31.0156 30.6279C30.9587 31.1896 30.5119 31.6364 29.9502 31.6934L29.8291 31.7002H1.19336C0.575513 31.7002 0.0678436 31.2297 0.00683594 30.6279L0 30.5068V1.87109C4.61226e-07 1.21213 0.534398 0.677734 1.19336 0.677734H29.8291L29.9502 0.68457ZM59.1709 16.4658C62.9795 16.4658 64.2686 19.1005 64.2686 21.5059V31.7002H58.5986V23.6533C58.5986 22.2503 58.4551 20.9904 56.7373 20.9902C55.3055 20.9902 54.8184 22.107 54.8184 23.6533V31.7002H49.1484V23.6533C49.1484 22.2502 49.0053 20.9902 47.2871 20.9902C45.8554 20.9903 45.3682 22.107 45.3682 23.6533V31.7002H39.6982V16.8379H45.168V18.8135H45.2256C46.371 17.0955 48.0321 16.4658 50.0938 16.4658C51.6973 16.4659 53.4153 17.2962 54.1025 18.7852C54.3316 18.6133 55.477 16.4659 59.1709 16.4658ZM106.146 16.4658C106.719 16.4658 107.264 16.5512 107.808 16.6943V21.7061C107.235 21.5056 106.719 21.334 105.573 21.334C103.34 21.3342 102.138 22.651 102.138 25.8291V31.7002H96.4678V16.8379H101.908V19.2148H101.966C102.882 17.4394 104.085 16.4658 106.146 16.4658ZM114.976 31.7002H109.306V16.8379H114.976V31.7002ZM124.667 19.7871L126.328 16.8379H132.398L127.731 23.8818L133 31.7002H126.758L124.581 28.0635L122.49 31.7002H116.276L121.46 23.8818L116.792 16.8379H123.035L124.667 19.7871ZM76.3496 25.0273C75.6625 25.3709 74.8892 25.5714 74.1162 25.7432C72.8564 26.0295 72.1975 26.3448 72.1973 27.3467C72.1973 28.0339 72.9418 28.7217 73.9727 28.7217C75.2612 28.7216 76.2636 27.9485 76.3496 26.4023V25.0273ZM2.98242 28.7168H14.3184V17.3789H2.98242V28.7168ZM114.976 15.2344H109.306V11.2539H114.976V15.2344ZM16.7041 14.9922H28.0391V3.66016H16.7041V14.9922ZM58.8418 2.62012C60.5599 2.62018 62.0202 3.47955 62.1777 5.29785H60.5459C60.417 4.39583 59.7575 3.90918 58.8555 3.90918C58.0107 3.90934 56.8232 4.35309 56.8232 6.60059C56.8233 7.83186 57.3668 9.13467 58.7842 9.13477C59.7292 9.13477 60.3884 8.50484 60.5459 7.44531H62.1777C61.8771 9.3639 60.6885 10.4238 58.7842 10.4238C56.4648 10.4238 55.1904 8.77683 55.1904 6.60059C55.1904 4.367 56.4078 2.62012 58.8418 2.62012ZM71.6797 2.62012C74.0565 2.62012 75.417 4.25242 75.417 6.51465C75.417 8.79118 74.0564 10.4238 71.6797 10.4238C69.3029 10.4238 67.9424 8.79117 67.9424 6.51465C67.9424 4.25243 69.3029 2.62013 71.6797 2.62012ZM47.8984 2.62012C49.4588 2.62023 50.3749 3.30754 50.375 5.11133V10.2227H48.7432V5.89941C48.7432 4.72535 48.6708 3.90918 47.3965 3.90918C46.2943 3.90938 45.8223 4.63928 45.8223 5.88477V10.2227H44.1895V5.46973C44.1895 4.45316 43.8747 3.90918 42.8867 3.90918C42.042 3.90923 41.2687 4.59599 41.2686 5.82715V10.2227H39.6367V2.82031H41.1826V3.85156H41.2256C41.7124 3.12135 42.3289 2.62012 43.5029 2.62012C44.4048 2.62025 45.2488 3.00702 45.5781 3.85156C46.1222 3.09272 46.8246 2.62012 47.8984 2.62012ZM53.7705 10.2227H52.1377V2.82031H53.7705V10.2227ZM67.2275 2.62012C67.5994 2.62014 67.6997 2.64877 67.8428 2.66309V4.23828C67.6138 4.20966 67.3706 4.16607 67.1416 4.16602C66.0248 4.16602 65.1367 5.06893 65.1367 6.70117V10.2227H63.5049V2.82031H65.0361V4.25195H65.0654C65.2519 3.46462 66.2255 2.62012 67.2275 2.62012ZM71.6797 3.90918C70.2193 3.9092 69.5752 5.24037 69.5752 6.51465C69.5752 7.80324 70.2193 9.13475 71.6797 9.13477C73.1401 9.13477 73.7842 7.80325 73.7842 6.51465C73.7842 5.24036 73.1401 3.90918 71.6797 3.90918ZM53.7705 1.5459H52.1377V0H53.7705V1.5459Z" fill="#1570EF"/>
</svg>
